<mxfile host="app.diagrams.net" modified="2024-01-10T03:51:46.330Z" agent="Mozilla/5.0 (X11; Ubuntu; Linux x86_64; rv:121.0) Gecko/20100101 Firefox/121.0" version="22.1.18" etag="uzEg3zrNbgO6BfOBq2f2" type="github">
  <diagram name="第 1 页" id="nCP3bLJQbtgChbw-J5__">
    <mxGraphModel>
      <root>
        <mxCell id="0" />
        <mxCell id="1" parent="0" />
      </root>
    </mxGraphModel>
  </diagram>
</mxfile>
